<?xml version="1.0" encoding="UTF-8" standalone="no"?>
<svg
   xmlns:dc="http://purl.org/dc/elements/1.1/"
   xmlns:cc="http://creativecommons.org/ns#"
   xmlns:rdf="http://www.w3.org/1999/02/22-rdf-syntax-ns#"
   xmlns:svg="http://www.w3.org/2000/svg"
   xmlns="http://www.w3.org/2000/svg"
   xmlns:sodipodi="http://sodipodi.sourceforge.net/DTD/sodipodi-0.dtd"
   xmlns:inkscape="http://www.inkscape.org/namespaces/inkscape"
   inkscape:export-ydpi="424.754"
   inkscape:export-xdpi="424.754"
   inkscape:export-filename="C:\Users\turbu\IdeaProjects\LongmanStyler\images\icon_128.png"
   inkscape:version="1.0 (4035a4fb49, 2020-05-01)"
   sodipodi:docname="pluginIcon.svg"
   version="1.1"
   viewBox="0 0 36 36"
   data-name="Layer 1"
   id="Layer_1">
  <metadata
     id="metadata21">
    <rdf:RDF>
      <cc:Work
         rdf:about="">
        <dc:format>image/svg+xml</dc:format>
        <dc:type
           rdf:resource="http://purl.org/dc/dcmitype/StillImage" />
        <dc:title>Artboard 1</dc:title>
      </cc:Work>
    </rdf:RDF>
  </metadata>
  <sodipodi:namedview
     inkscape:document-rotation="0"
     inkscape:current-layer="Layer_1"
     inkscape:window-maximized="1"
     inkscape:window-y="-8"
     inkscape:window-x="1912"
     inkscape:cy="18.672923"
     inkscape:cx="4.5859484"
     inkscape:zoom="18.541911"
     showgrid="false"
     id="namedview19"
     inkscape:window-height="1017"
     inkscape:window-width="1920"
     inkscape:pageshadow="2"
     inkscape:pageopacity="0"
     guidetolerance="10"
     gridtolerance="10"
     objecttolerance="10"
     borderopacity="1"
     bordercolor="#666666"
     pagecolor="#ffffff" />
  <defs
     id="defs4">
    <style
       id="style2">.cls-1{fill:#ff7f7f;}.cls-2{fill:#7f7fff;}.cls-3{fill:#fff;}</style>
  </defs>
  <title
     id="title6">Artboard 1</title>
  <path
     d="M 5.4003906 3.140625 C 4.2923906 3.140625 3.4003906 4.032625 3.4003906 5.140625 L 3.4003906 30.070312 C 3.4003906 31.178314 4.2923906 32.070312 5.4003906 32.070312 L 30.330078 32.070312 C 31.438078 32.070312 32.330078 31.178314 32.330078 30.070312 L 32.330078 5.140625 C 32.330078 4.032625 31.438078 3.140625 30.330078 3.140625 L 5.4003906 3.140625 z M 28.5 6.140625 L 29.339844 6.9804688 L 27.800781 12.720703 L 26.820312 11.740234 L 27.949219 7.5195312 L 23.730469 8.6503906 L 22.759766 7.6796875 L 28.5 6.140625 z M 21.068359 13.201172 C 21.287978 13.201172 21.506944 13.218533 21.726562 13.251953 C 21.946181 13.285373 22.152777 13.33138 22.34375 13.388672 C 22.534723 13.445965 22.703558 13.510418 22.851562 13.582031 C 22.999566 13.653646 23.096789 13.712022 23.144531 13.759766 C 23.192278 13.807506 23.223961 13.849389 23.238281 13.882812 C 23.257381 13.916232 23.271703 13.960286 23.28125 14.017578 C 23.295577 14.070098 23.305774 14.140627 23.310547 14.226562 C 23.315347 14.307726 23.318359 14.409071 23.318359 14.533203 C 23.318359 14.671658 23.312281 14.789279 23.302734 14.884766 C 23.297934 14.980252 23.286651 15.059028 23.267578 15.121094 C 23.253258 15.18316 23.228732 15.229167 23.195312 15.257812 C 23.166666 15.286459 23.126735 15.300781 23.074219 15.300781 C 23.021699 15.300781 22.9388 15.266059 22.824219 15.199219 C 22.709635 15.132378 22.567492 15.060764 22.400391 14.984375 C 22.233289 14.903212 22.039931 14.831597 21.820312 14.769531 C 21.600694 14.702691 21.360244 14.669922 21.097656 14.669922 C 20.89236 14.669922 20.713325 14.695527 20.560547 14.748047 C 20.407769 14.795787 20.278863 14.866317 20.173828 14.957031 C 20.073567 15.042969 19.99783 15.147352 19.945312 15.271484 C 19.897566 15.395617 19.873047 15.527561 19.873047 15.666016 C 19.873047 15.871312 19.9273 16.050347 20.037109 16.203125 C 20.151693 16.351129 20.302083 16.484158 20.488281 16.603516 C 20.679254 16.718099 20.894096 16.828559 21.132812 16.933594 C 21.371529 17.033854 21.615017 17.141275 21.863281 17.255859 C 22.111546 17.370443 22.355034 17.500433 22.59375 17.648438 C 22.832466 17.791667 23.046224 17.966579 23.232422 18.171875 C 23.418621 18.372396 23.56901 18.611761 23.683594 18.888672 C 23.798177 19.160808 23.855469 19.483072 23.855469 19.855469 L 23.853516 19.855469 C 23.853516 20.342449 23.763455 20.769097 23.582031 21.136719 C 23.400607 21.504341 23.154081 21.812283 22.84375 22.060547 C 22.53342 22.304038 22.171225 22.487196 21.755859 22.611328 C 21.340494 22.73546 20.896485 22.798828 20.423828 22.798828 C 20.103949 22.798828 19.806207 22.77127 19.529297 22.71875 C 19.257161 22.66623 19.014758 22.604815 18.804688 22.533203 C 18.594617 22.456814 18.41862 22.378038 18.275391 22.296875 C 18.136935 22.215712 18.036675 22.144097 17.974609 22.082031 C 17.912543 22.019965 17.866536 21.93099 17.837891 21.816406 C 17.814017 21.697048 17.802734 21.528212 17.802734 21.308594 C 17.802734 21.16059 17.80686 21.035808 17.816406 20.935547 C 17.825953 20.835286 17.840275 20.755425 17.859375 20.693359 C 17.883248 20.631293 17.911893 20.588324 17.945312 20.564453 C 17.983506 20.535806 18.026475 20.521484 18.074219 20.521484 C 18.141059 20.521484 18.234158 20.561415 18.353516 20.642578 C 18.477648 20.718967 18.635199 20.804905 18.826172 20.900391 C 19.017145 20.995877 19.245225 21.084852 19.507812 21.166016 C 19.775175 21.242405 20.083116 21.279297 20.431641 21.279297 C 20.660808 21.279297 20.865451 21.253692 21.046875 21.201172 C 21.228299 21.143879 21.381727 21.065102 21.505859 20.964844 C 21.634765 20.864583 21.731987 20.739801 21.798828 20.591797 C 21.865669 20.443793 21.898438 20.27908 21.898438 20.097656 C 21.898438 19.887586 21.841146 19.70855 21.726562 19.560547 C 21.611979 19.407768 21.461589 19.27474 21.275391 19.160156 C 21.093967 19.040798 20.886285 18.930339 20.652344 18.830078 C 20.418402 18.725043 20.177952 18.616537 19.929688 18.501953 C 19.681424 18.38737 19.440973 18.258464 19.207031 18.115234 C 18.97309 17.96723 18.762371 17.792318 18.576172 17.591797 C 18.394748 17.386502 18.247396 17.146051 18.132812 16.869141 C 18.018229 16.592231 17.960938 16.259767 17.960938 15.873047 C 17.960938 15.429036 18.040798 15.03928 18.203125 14.705078 C 18.370226 14.366101 18.59223 14.086806 18.869141 13.867188 C 19.150825 13.642795 19.480251 13.476997 19.857422 13.367188 C 20.239367 13.257378 20.643445 13.201172 21.068359 13.201172 z M 13.089844 13.324219 C 13.276042 13.324219 13.42947 13.331376 13.548828 13.345703 C 13.668186 13.360023 13.764323 13.37847 13.835938 13.402344 C 13.907552 13.426217 13.957682 13.4579 13.986328 13.496094 C 14.019748 13.534287 14.035156 13.577256 14.035156 13.625 L 14.035156 21.080078 L 16.951172 21.080078 C 16.998912 21.080078 17.038842 21.0944 17.072266 21.123047 C 17.110459 21.14692 17.142142 21.189888 17.166016 21.251953 C 17.189889 21.309246 17.205297 21.388023 17.214844 21.488281 C 17.229164 21.583768 17.236328 21.702474 17.236328 21.845703 C 17.236328 21.988932 17.229164 22.110677 17.214844 22.210938 C 17.205297 22.306424 17.189889 22.388238 17.166016 22.455078 C 17.142142 22.517145 17.110459 22.561198 17.072266 22.589844 C 17.038846 22.61849 16.998915 22.632812 16.951172 22.632812 L 12.703125 22.632812 C 12.545572 22.632813 12.412544 22.588759 12.302734 22.498047 C 12.1977 22.402561 12.144531 22.249133 12.144531 22.039062 L 12.144531 13.625 C 12.144531 13.577253 12.158853 13.534284 12.1875 13.496094 C 12.22092 13.4579 12.274088 13.426217 12.345703 13.402344 C 12.417318 13.37847 12.513456 13.360023 12.632812 13.345703 C 12.756946 13.331376 12.90842 13.324219 13.089844 13.324219 z M 7.8300781 22.970703 L 8.7304688 23.869141 L 7.6796875 27.800781 L 11.599609 26.740234 L 12.509766 27.650391 L 7.1796875 29.070312 L 6.4003906 28.300781 L 7.8300781 22.970703 z "
     style="fill:#ff7f2a;fill-opacity:1"
     id="rect8" />
  <line
     id="line12"
     y2="28.16"
     x2="4.08"
     y1="28.16"
     x1="4.08"
     class="cls-1" />
  <g
     transform="translate(-2.2e-5)"
     style="font-size:14.6667px;line-height:0;font-family:'Comic Sans MS';-inkscape-font-specification:'Comic Sans MS, Normal'"
     id="text883"
     aria-label="LS" />
</svg>
